<svg xmlns="http://www.w3.org/2000/svg" width="89" height="28" fill="none"><circle cx="14" cy="14" r="14" fill="#FFCE8A"/><path fill="#fff" d="M17.334 20.667h-6.667a.504.504 0 0 1-.5-.5c0-.273.227-.5.5-.5h6.667c.273 0 .5.227.5.5s-.227.5-.5.5ZM19.567 9.68 16.9 11.587a.671.671 0 0 1-1.013-.307l-1.26-3.36a.664.664 0 0 0-1.247 0l-1.267 3.354a.657.657 0 0 1-1.006.306L8.44 9.674c-.533-.374-1.24.153-1.02.773l2.774 7.767c.093.266.346.44.626.44h6.354a.67.67 0 0 0 .626-.44l2.773-7.767c.227-.62-.48-1.147-1.006-.767Zm-3.9 6.154h-3.333a.504.504 0 0 1-.5-.5c0-.274.226-.5.5-.5h3.333c.273 0 .5.226.5.5 0 .273-.227.5-.5.5Z"/><path fill="#0A0A0A" d="M37.2 20V8.8h1.12V20H37.2Zm10.252-4.952V20h-1.12v-4.728a2.28 2.28 0 0 0-.32-1.192 2.436 2.436 0 0 0-.856-.856 2.281 2.281 0 0 0-1.192-.32c-.432 0-.83.107-1.192.32a2.438 2.438 0 0 0-.856.856c-.214.357-.32.755-.32 1.192V20h-1.12v-8h1.12v1.104a3.08 3.08 0 0 1 1.104-.968c.453-.24.946-.36 1.48-.36.602 0 1.152.147 1.648.44.496.293.89.688 1.184 1.184a3.18 3.18 0 0 1 .44 1.648Zm4.074 5.104a4.06 4.06 0 0 1-1.28-.24 3.591 3.591 0 0 1-1.088-.608 2.23 2.23 0 0 1-.664-.872l.968-.416c.085.208.242.4.472.576.234.17.501.31.8.416.298.101.594.152.888.152.325 0 .63-.053.912-.16.282-.107.512-.259.688-.456.181-.203.272-.44.272-.712 0-.293-.096-.523-.288-.688a2.03 2.03 0 0 0-.728-.4 20.103 20.103 0 0 0-.904-.288 11.323 11.323 0 0 1-1.496-.512c-.432-.187-.77-.424-1.016-.712-.24-.293-.36-.67-.36-1.128 0-.485.136-.904.408-1.256a2.697 2.697 0 0 1 1.08-.824 3.513 3.513 0 0 1 1.432-.296c.65 0 1.242.141 1.776.424.538.283.928.659 1.168 1.128l-.904.536a1.448 1.448 0 0 0-.456-.568 2.454 2.454 0 0 0-.712-.376 2.642 2.642 0 0 0-1.752.008 1.66 1.66 0 0 0-.712.456c-.176.203-.264.45-.264.744 0 .293.088.517.264.672.176.15.413.272.712.368.304.09.645.197 1.024.32.485.155.941.33 1.368.528.426.197.77.443 1.032.736.261.293.39.664.384 1.112 0 .48-.144.899-.432 1.256a2.794 2.794 0 0 1-1.12.824c-.459.187-.95.272-1.472.256ZM55.85 12h1.12v8h-1.12v-8Zm.568-1.4a.662.662 0 0 1-.464-.176.62.62 0 0 1-.184-.456c0-.181.061-.33.184-.448a.646.646 0 0 1 .464-.184.61.61 0 0 1 .448.184.581.581 0 0 1 .192.448.62.62 0 0 1-.184.456.634.634 0 0 1-.456.176Zm8.76 1.4h1.12v8.296c0 .512-.112.992-.336 1.44-.218.448-.517.84-.896 1.176-.373.341-.8.608-1.28.8A3.99 3.99 0 0 1 62.29 24c-.554 0-1.09-.128-1.608-.384a4.42 4.42 0 0 1-1.352-1.008 3.753 3.753 0 0 1-.808-1.4l1.032-.472c.102.4.291.76.568 1.08.283.325.614.581.992.768.384.192.776.288 1.176.288a2.8 2.8 0 0 0 1.064-.208c.347-.133.656-.317.928-.552a2.64 2.64 0 0 0 .656-.824c.16-.31.24-.64.24-.992v-1.768a3.384 3.384 0 0 1-1.128 1.216c-.469.31-1.016.464-1.64.464-.56 0-1.088-.11-1.584-.328a4.143 4.143 0 0 1-1.296-.904 4.376 4.376 0 0 1-.88-1.344A4.255 4.255 0 0 1 58.34 16c0-.581.104-1.125.312-1.632.214-.512.507-.96.88-1.344a4.09 4.09 0 0 1 1.296-.912 3.882 3.882 0 0 1 1.584-.328c.624 0 1.171.155 1.64.464a3.3 3.3 0 0 1 1.128 1.216V12Zm-2.76 7.12c.555 0 1.032-.144 1.432-.432.406-.288.718-.67.936-1.144.219-.475.328-.99.328-1.544 0-.57-.112-1.09-.336-1.56a2.763 2.763 0 0 0-.936-1.136c-.405-.288-.88-.432-1.424-.432a2.73 2.73 0 0 0-1.488.424 3.027 3.027 0 0 0-1.056 1.128c-.261.475-.392 1-.392 1.576a3.162 3.162 0 0 0 1.464 2.704c.448.277.939.416 1.472.416Zm12.783-4.072V20h-1.12v-4.728a2.28 2.28 0 0 0-.32-1.192 2.436 2.436 0 0 0-.856-.856 2.281 2.281 0 0 0-1.192-.32c-.432 0-.83.107-1.192.32a2.438 2.438 0 0 0-.856.856c-.214.357-.32.755-.32 1.192V20h-1.12V8h1.12v5.104a3.08 3.08 0 0 1 1.104-.968c.453-.24.946-.36 1.48-.36.602 0 1.152.147 1.648.44.496.293.89.688 1.184 1.184a3.18 3.18 0 0 1 .44 1.648Zm5.69-1.928H78.98L78.972 20h-1.12l.008-6.88h-1.448V12h1.448l-.008-2.512h1.12L78.98 12h1.912v1.12Zm3.837 7.032a4.06 4.06 0 0 1-1.28-.24 3.591 3.591 0 0 1-1.088-.608 2.23 2.23 0 0 1-.664-.872l.968-.416c.085.208.242.4.472.576.234.17.501.31.8.416.299.101.594.152.888.152.325 0 .63-.053.912-.16.282-.107.512-.259.688-.456.181-.203.272-.44.272-.712 0-.293-.096-.523-.288-.688a2.03 2.03 0 0 0-.728-.4 20.103 20.103 0 0 0-.904-.288 11.323 11.323 0 0 1-1.496-.512c-.432-.187-.77-.424-1.016-.712-.24-.293-.36-.67-.36-1.128 0-.485.136-.904.408-1.256a2.697 2.697 0 0 1 1.08-.824 3.513 3.513 0 0 1 1.432-.296c.65 0 1.242.141 1.776.424.538.283.928.659 1.168 1.128l-.904.536a1.448 1.448 0 0 0-.456-.568 2.454 2.454 0 0 0-.712-.376 2.642 2.642 0 0 0-1.752.008 1.66 1.66 0 0 0-.712.456c-.176.203-.264.45-.264.744 0 .293.088.517.264.672.176.15.413.272.712.368.304.09.645.197 1.024.32.485.155.941.33 1.368.528.426.197.77.443 1.032.736.261.293.39.664.384 1.112 0 .48-.144.899-.432 1.256a2.794 2.794 0 0 1-1.12.824c-.459.187-.95.272-1.472.256Z"/></svg>