<svg xmlns="http://www.w3.org/2000/svg" width="22" height="16" fill="none"><path fill="#fff" d="M5.164 2.128a.652.652 0 0 0 0 .954l1.502 1.43a.733.733 0 0 0 1.001 0l1.186-1.129c.2-.19.47-.296.75-.296h2.915c.281 0 .551.106.75.296l1.186 1.13a.733.733 0 0 0 1.002 0l1.502-1.431a.652.652 0 0 0 0-.954L15.456.698a.733.733 0 0 0-1.002 0l-1.135 1.08c-.2.19-.47.297-.751.297H9.553a1.09 1.09 0 0 1-.75-.296L7.666.698a.733.733 0 0 0-1.001 0l-1.502 1.43Zm10.621 5.337a.652.652 0 0 0 0 .954l2.503 2.384a.734.734 0 0 0 1.001 0l2.504-2.384a.652.652 0 0 0 0-.954l-2.504-2.384a.733.733 0 0 0-1.001 0l-2.503 2.384ZM5.164 13.872a.652.652 0 0 1 0-.954l1.502-1.43a.733.733 0 0 1 1.001 0l1.135 1.08c.2.19.47.297.751.297h3.015c.282 0 .552-.106.751-.296l1.135-1.081a.733.733 0 0 1 1.002 0l1.502 1.43a.652.652 0 0 1 0 .954l-1.502 1.43a.733.733 0 0 1-1.002 0l-1.185-1.129a1.09 1.09 0 0 0-.751-.296H9.604a1.09 1.09 0 0 0-.751.296l-1.186 1.13a.733.733 0 0 1-1.001 0l-1.502-1.431ZM.207 7.465a.652.652 0 0 0 0 .954l2.504 2.384a.733.733 0 0 0 1.001 0l2.126-2.025c.2-.19.47-.296.751-.296h1.003c.281 0 .551.106.75.296l2.162 2.06a.733.733 0 0 0 1.002 0l2.503-2.385a.652.652 0 0 0 0-.954l-2.503-2.384a.733.733 0 0 0-1.002 0l-2.16 2.059c-.2.19-.47.296-.751.296H6.66a1.09 1.09 0 0 1-.751-.296L3.712 5.081a.733.733 0 0 0-1.001 0L.207 7.465Z"/></svg>