<svg xmlns="http://www.w3.org/2000/svg" width="43" height="20" fill="none"><path fill="#fff" d="M0 5.51V.138c.241.03.743.108.743.108C2.973.62 5.682 1.517 8.186 3.51a.638.638 0 0 1 .081.915L5.685 7.477c-.243.289-.68.318-.98.086C3.145 6.353 1.467 5.775 0 5.51Zm0 14.352V14.49c1.994-.36 4.379-1.301 6.334-3.62.517-.613 1.022-1.227 1.521-1.834 1.768-2.151 3.454-4.203 5.282-5.72C15.43 1.413 17.98 0 21.5 0c3.52 0 6.07 1.413 8.363 3.316.884.734 1.735 1.593 2.578 2.527l.096-.114c3.033-3.597 6.79-4.992 9.72-5.483.254-.042.502-.078.743-.108V5.51c-1.994.36-4.379 1.301-6.334 3.62-.244.29-.486.58-.726.87.24.29.482.58.726.87 1.955 2.319 4.34 3.26 6.334 3.62v5.372c-.241-.03-.49-.066-.743-.108-2.93-.49-6.687-1.886-9.72-5.483a227.774 227.774 0 0 1-1.805-2.173c-1.68-2.04-2.926-3.552-4.326-4.714-1.351-1.122-2.825-2.055-4.906-2.055-2.08 0-3.554.933-4.906 2.055-.87.722-1.681 1.58-2.574 2.616.893 1.036 1.704 1.894 2.574 2.616 1.352 1.123 2.825 2.055 4.906 2.055 2.08 0 3.555-.932 4.906-2.055l.14-.118a.703.703 0 0 1 .995.072c.832 1 1.692 2.018 2.589 2.988a.65.65 0 0 1-.043.936l-.224.19C27.57 18.587 25.02 20 21.5 20c-3.52 0-6.07-1.413-8.363-3.316-.884-.734-1.735-1.593-2.578-2.527l-.096.114c-3.033 3.597-6.79 4.992-9.72 5.483-.254.042-.502.078-.743.108Z"/></svg>